{
	"asset":{
		"generator":"Khronos glTF Blender I/O v5.2.39",
		"version":"2.0"
	},
	"scene":0,
	"scenes":[
		{
			"name":"Scene",
			"nodes":[
				0,
				4,
				6,
				10,
				12,
				16,
				18,
				22
			]
		}
	],
	"nodes":[
		{
			"mesh":0,
			"name":"Object_20",
			"rotation":[
				0,
				-0.7071068286895752,
				0,
				0.7071067094802856
			],
			"scale":[
				1.1576417684555054,
				1.1576417684555054,
				1.1576417684555054
			],
			"translation":[
				0.0050275628454983234,
				-0.09282565116882324,
				0.0028246270958334208
			]
		},
		{
			"mesh":1,
			"name":"Object_4"
		},
		{
			"mesh":2,
			"name":"Object_5"
		},
		{
			"children":[
				1,
				2
			],
			"name":"8b913d56fa6647b7b3376d6cec4c3ecb.obj.cleaner.materialmerger.gles"
		},
		{
			"children":[
				3
			],
			"name":"Sketchfab_model",
			"rotation":[
				-0.5,
				-0.5,
				-0.5,
				0.5
			],
			"scale":[
				0.10351771116256714,
				0.10351771116256714,
				0.10351771116256714
			],
			"translation":[
				0.03551129251718521,
				-0.09283587336540222,
				0.015500031411647797
			]
		},
		{
			"name":"0RJNWRF531XBTNNR38IJ74PTS.obj.cleaner.materialmerger.gles"
		},
		{
			"children":[
				5
			],
			"name":"Sketchfab_model.001",
			"rotation":[
				-0.5,
				-0.5,
				-0.5,
				0.5
			],
			"scale":[
				0.10351771116256714,
				0.10351771116256714,
				0.10351771116256714
			],
			"translation":[
				0.03551129251718521,
				-0.09283587336540222,
				0.015500031411647797
			]
		},
		{
			"mesh":3,
			"name":"Object_4.001"
		},
		{
			"mesh":4,
			"name":"Object_5.001"
		},
		{
			"children":[
				7,
				8
			],
			"name":"8b913d56fa6647b7b3376d6cec4c3ecb.obj.cleaner.materialmerger.gles.001"
		},
		{
			"children":[
				9
			],
			"name":"Sketchfab_model.002",
			"rotation":[
				-0.5,
				-0.5,
				-0.5,
				0.5
			],
			"scale":[
				0.10351771116256714,
				0.10351771116256714,
				0.10351771116256714
			],
			"translation":[
				0.03551129251718521,
				-0.09283587336540222,
				0.015500031411647797
			]
		},
		{
			"name":"0RJNWRF531XBTNNR38IJ74PTS.obj.cleaner.materialmerger.gles.001"
		},
		{
			"children":[
				11
			],
			"name":"Sketchfab_model.003",
			"rotation":[
				-0.7071070075035095,
				0,
				0,
				0.7071065902709961
			],
			"scale":[
				0.7003211379051208,
				0.7003211975097656,
				0.7003211975097656
			],
			"translation":[
				0.22427552938461304,
				0.7039255499839783,
				-0.016764041036367416
			]
		},
		{
			"mesh":5,
			"name":"Object_4.002"
		},
		{
			"mesh":6,
			"name":"Object_5.002"
		},
		{
			"children":[
				13,
				14
			],
			"name":"8b913d56fa6647b7b3376d6cec4c3ecb.obj.cleaner.materialmerger.gles.002"
		},
		{
			"children":[
				15
			],
			"name":"Sketchfab_model.004",
			"rotation":[
				-0.5,
				-0.5,
				-0.5,
				0.5
			],
			"scale":[
				0.10351771116256714,
				0.10351771116256714,
				0.10351771116256714
			],
			"translation":[
				0.03551129251718521,
				-0.09283587336540222,
				0.015500031411647797
			]
		},
		{
			"name":"0RJNWRF531XBTNNR38IJ74PTS.obj.cleaner.materialmerger.gles.002"
		},
		{
			"children":[
				17
			],
			"name":"Sketchfab_model.005",
			"rotation":[
				-0.5,
				-0.5,
				-0.5,
				0.5
			],
			"scale":[
				0.10351771116256714,
				0.10351771116256714,
				0.10351771116256714
			],
			"translation":[
				0.03551129251718521,
				-0.09283587336540222,
				0.015500031411647797
			]
		},
		{
			"mesh":7,
			"name":"Object_4.003"
		},
		{
			"mesh":8,
			"name":"Object_5.003"
		},
		{
			"children":[
				19,
				20
			],
			"name":"8b913d56fa6647b7b3376d6cec4c3ecb.obj.cleaner.materialmerger.gles.003"
		},
		{
			"children":[
				21
			],
			"name":"Sketchfab_model.006",
			"rotation":[
				-0.5,
				-0.5,
				-0.5,
				0.5
			],
			"scale":[
				0.10351771116256714,
				0.10351771116256714,
				0.10351771116256714
			],
			"translation":[
				0.03551129251718521,
				-0.09283587336540222,
				0.015500031411647797
			]
		}
	],
	"materials":[
		{
			"alphaMode":"MASK",
			"doubleSided":true,
			"name":"body_m_4",
			"normalTexture":{
				"index":0
			},
			"pbrMetallicRoughness":{
				"baseColorFactor":[
					1,
					1,
					1,
					0
				],
				"baseColorTexture":{
					"index":1
				},
				"metallicFactor":0,
				"roughnessFactor":0.8929713368415833
			}
		},
		{
			"alphaMode":"BLEND",
			"doubleSided":true,
			"name":"body_m",
			"normalTexture":{
				"index":2
			},
			"pbrMetallicRoughness":{
				"baseColorTexture":{
					"index":3
				},
				"metallicFactor":0,
				"roughnessFactor":0.8929713368415833
			}
		},
		{
			"doubleSided":true,
			"name":"eye_m",
			"pbrMetallicRoughness":{
				"baseColorTexture":{
					"index":4
				},
				"metallicFactor":0,
				"roughnessFactor":0.8929713368415833
			}
		},
		{
			"alphaMode":"BLEND",
			"doubleSided":true,
			"name":"eye_m_0",
			"pbrMetallicRoughness":{
				"baseColorTexture":{
					"index":5
				},
				"metallicFactor":0,
				"roughnessFactor":0.8929713368415833
			}
		},
		{
			"alphaMode":"BLEND",
			"doubleSided":true,
			"name":"body_m_0",
			"normalTexture":{
				"index":6
			},
			"pbrMetallicRoughness":{
				"baseColorTexture":{
					"index":7
				},
				"metallicFactor":0,
				"roughnessFactor":0.8929713368415833
			}
		},
		{
			"alphaMode":"MASK",
			"doubleSided":true,
			"name":"body_m_1",
			"normalTexture":{
				"index":8
			},
			"pbrMetallicRoughness":{
				"baseColorFactor":[
					1,
					1,
					1,
					0
				],
				"baseColorTexture":{
					"index":9
				},
				"metallicFactor":0,
				"roughnessFactor":0.8929713368415833
			}
		},
		{
			"alphaMode":"MASK",
			"doubleSided":true,
			"name":"body_m_2",
			"normalTexture":{
				"index":10
			},
			"pbrMetallicRoughness":{
				"baseColorFactor":[
					1,
					1,
					1,
					0
				],
				"baseColorTexture":{
					"index":11
				},
				"metallicFactor":0,
				"roughnessFactor":0.8929713368415833
			}
		},
		{
			"alphaMode":"MASK",
			"doubleSided":true,
			"name":"body_m_3",
			"normalTexture":{
				"index":12
			},
			"pbrMetallicRoughness":{
				"baseColorFactor":[
					1,
					1,
					1,
					0
				],
				"baseColorTexture":{
					"index":13
				},
				"metallicFactor":0,
				"roughnessFactor":0.8929713368415833
			}
		},
		{
			"alphaMode":"MASK",
			"doubleSided":true,
			"name":"Pupil__m_PupilR",
			"pbrMetallicRoughness":{
				"baseColorFactor":[
					1,
					1,
					1,
					0
				],
				"baseColorTexture":{
					"index":14
				},
				"metallicFactor":0,
				"roughnessFactor":0.6000000238418579
			}
		},
		{
			"alphaMode":"MASK",
			"doubleSided":true,
			"name":"Pupil__m_PupilL",
			"pbrMetallicRoughness":{
				"baseColorFactor":[
					1,
					1,
					1,
					0
				],
				"metallicFactor":0,
				"roughnessFactor":0.6000000238418579
			}
		},
		{
			"alphaMode":"MASK",
			"doubleSided":true,
			"name":"Pupil__m_PupilR.001",
			"pbrMetallicRoughness":{
				"baseColorFactor":[
					1,
					1,
					1,
					0
				],
				"baseColorTexture":{
					"index":15
				},
				"metallicFactor":0,
				"roughnessFactor":0.6000000238418579
			}
		},
		{
			"alphaMode":"MASK",
			"doubleSided":true,
			"name":"Pupil__m_PupilL.001",
			"pbrMetallicRoughness":{
				"baseColorFactor":[
					1,
					1,
					1,
					0
				],
				"metallicFactor":0,
				"roughnessFactor":0.6000000238418579
			}
		},
		{
			"alphaMode":"MASK",
			"doubleSided":true,
			"name":"Pupil__m_PupilR.002",
			"pbrMetallicRoughness":{
				"baseColorFactor":[
					1,
					1,
					1,
					0
				],
				"baseColorTexture":{
					"index":16
				},
				"metallicFactor":0,
				"roughnessFactor":0.6000000238418579
			}
		},
		{
			"alphaMode":"MASK",
			"doubleSided":true,
			"name":"Pupil__m_PupilL.002",
			"pbrMetallicRoughness":{
				"baseColorFactor":[
					1,
					1,
					1,
					0
				],
				"metallicFactor":0,
				"roughnessFactor":0.6000000238418579
			}
		},
		{
			"alphaMode":"MASK",
			"doubleSided":true,
			"name":"Pupil__m_PupilR.003",
			"pbrMetallicRoughness":{
				"baseColorFactor":[
					1,
					1,
					1,
					0
				],
				"baseColorTexture":{
					"index":17
				},
				"metallicFactor":0,
				"roughnessFactor":0.6000000238418579
			}
		},
		{
			"alphaMode":"MASK",
			"doubleSided":true,
			"name":"Pupil__m_PupilL.003",
			"pbrMetallicRoughness":{
				"baseColorFactor":[
					1,
					1,
					1,
					0
				],
				"metallicFactor":0,
				"roughnessFactor":0.6000000238418579
			}
		}
	],
	"meshes":[
		{
			"name":"facial_04__body_m_body_m_0",
			"primitives":[
				{
					"attributes":{
						"POSITION":0,
						"NORMAL":1,
						"TEXCOORD_0":2,
						"TEXCOORD_1":3,
						"TEXCOORD_2":4,
						"TEXCOORD_3":5,
						"COLOR_0":6,
						"COLOR_1":7
					},
					"indices":8,
					"material":0
				},
				{
					"attributes":{
						"POSITION":9,
						"NORMAL":10,
						"TEXCOORD_0":11,
						"TEXCOORD_1":12,
						"TEXCOORD_2":13,
						"TEXCOORD_3":14,
						"COLOR_0":15,
						"COLOR_1":16
					},
					"indices":17,
					"material":1
				},
				{
					"attributes":{
						"POSITION":18,
						"NORMAL":19,
						"TEXCOORD_0":20,
						"TEXCOORD_1":21,
						"TEXCOORD_2":22,
						"TEXCOORD_3":23,
						"COLOR_0":24,
						"COLOR_1":25
					},
					"indices":26,
					"material":2
				},
				{
					"attributes":{
						"POSITION":27,
						"NORMAL":28,
						"TEXCOORD_0":29,
						"TEXCOORD_1":30,
						"TEXCOORD_2":31,
						"TEXCOORD_3":32,
						"COLOR_0":33,
						"COLOR_1":34
					},
					"indices":26,
					"material":3
				},
				{
					"attributes":{
						"POSITION":35,
						"NORMAL":36,
						"TEXCOORD_0":37,
						"TEXCOORD_1":38,
						"TEXCOORD_2":39,
						"TEXCOORD_3":40,
						"COLOR_0":41,
						"COLOR_1":42
					},
					"indices":43,
					"material":4
				},
				{
					"attributes":{
						"POSITION":44,
						"NORMAL":45,
						"TEXCOORD_0":46,
						"TEXCOORD_1":47,
						"TEXCOORD_2":48,
						"TEXCOORD_3":49,
						"COLOR_0":50,
						"COLOR_1":51
					},
					"indices":52,
					"material":5
				},
				{
					"attributes":{
						"POSITION":53,
						"NORMAL":54,
						"TEXCOORD_0":55,
						"TEXCOORD_1":56,
						"TEXCOORD_2":57,
						"TEXCOORD_3":58,
						"COLOR_0":59,
						"COLOR_1":60
					},
					"indices":61,
					"material":6
				},
				{
					"attributes":{
						"POSITION":62,
						"NORMAL":63,
						"TEXCOORD_0":64,
						"TEXCOORD_1":65,
						"TEXCOORD_2":66,
						"TEXCOORD_3":67,
						"COLOR_0":68,
						"COLOR_1":69
					},
					"indices":70,
					"material":7
				}
			]
		},
		{
			"name":"Object_2",
			"primitives":[
				{
					"attributes":{
						"POSITION":71,
						"NORMAL":72,
						"TEXCOORD_0":73
					},
					"indices":74,
					"material":8
				}
			]
		},
		{
			"name":"Object_3",
			"primitives":[
				{
					"attributes":{
						"POSITION":75,
						"NORMAL":76,
						"TEXCOORD_0":77
					},
					"indices":78,
					"material":9
				}
			]
		},
		{
			"name":"Object_2.001",
			"primitives":[
				{
					"attributes":{
						"POSITION":79,
						"NORMAL":80,
						"TEXCOORD_0":81
					},
					"indices":74,
					"material":10
				}
			]
		},
		{
			"name":"Object_3.001",
			"primitives":[
				{
					"attributes":{
						"POSITION":82,
						"NORMAL":83,
						"TEXCOORD_0":84
					},
					"indices":78,
					"material":11
				}
			]
		},
		{
			"name":"Object_2.002",
			"primitives":[
				{
					"attributes":{
						"POSITION":85,
						"NORMAL":86,
						"TEXCOORD_0":87
					},
					"indices":74,
					"material":12
				}
			]
		},
		{
			"name":"Object_3.002",
			"primitives":[
				{
					"attributes":{
						"POSITION":88,
						"NORMAL":89,
						"TEXCOORD_0":90
					},
					"indices":78,
					"material":13
				}
			]
		},
		{
			"name":"Object_2.003",
			"primitives":[
				{
					"attributes":{
						"POSITION":91,
						"NORMAL":92,
						"TEXCOORD_0":93
					},
					"indices":74,
					"material":14
				}
			]
		},
		{
			"name":"Object_3.003",
			"primitives":[
				{
					"attributes":{
						"POSITION":94,
						"NORMAL":95,
						"TEXCOORD_0":96
					},
					"indices":78,
					"material":15
				}
			]
		}
	],
	"textures":[
		{
			"sampler":0,
			"source":0
		},
		{
			"sampler":0,
			"source":1
		},
		{
			"sampler":0,
			"source":0
		},
		{
			"sampler":0,
			"source":1
		},
		{
			"sampler":0,
			"source":2
		},
		{
			"sampler":0,
			"source":3
		},
		{
			"sampler":0,
			"source":0
		},
		{
			"sampler":0,
			"source":1
		},
		{
			"sampler":0,
			"source":0
		},
		{
			"sampler":0,
			"source":1
		},
		{
			"sampler":0,
			"source":0
		},
		{
			"sampler":0,
			"source":1
		},
		{
			"sampler":0,
			"source":0
		},
		{
			"sampler":0,
			"source":1
		},
		{
			"sampler":0,
			"source":4
		},
		{
			"sampler":0,
			"source":4
		},
		{
			"sampler":0,
			"source":4
		},
		{
			"sampler":0,
			"source":4
		}
	],
	"images":[
		{
			"mimeType":"image/png",
			"name":"body_m_normal",
			"uri":"body_m_normal.png"
		},
		{
			"mimeType":"image/png",
			"name":"body_m_baseColor",
			"uri":"body_m_baseColor.png"
		},
		{
			"mimeType":"image/png",
			"name":"eye_m_baseColor",
			"uri":"eye_m_baseColor.png"
		},
		{
			"mimeType":"image/png",
			"name":"eye_m_0_baseColor",
			"uri":"eye_m_0_baseColor.png"
		},
		{
			"mimeType":"image/png",
			"name":"Image_0",
			"uri":"Image_0.png"
		}
	],
	"accessors":[
		{
			"bufferView":0,
			"componentType":5126,
			"count":176,
			"max":[
				0.20178431272506714,
				1.540485143661499,
				0.6500810384750366
			],
			"min":[
				-0.20178431272506714,
				1.2455297708511353,
				0.49001410603523254
			],
			"type":"VEC3"
		},
		{
			"bufferView":1,
			"componentType":5126,
			"count":176,
			"type":"VEC3"
		},
		{
			"bufferView":2,
			"componentType":5126,
			"count":176,
			"type":"VEC2"
		},
		{
			"bufferView":3,
			"componentType":5126,
			"count":176,
			"type":"VEC2"
		},
		{
			"bufferView":4,
			"componentType":5126,
			"count":176,
			"type":"VEC2"
		},
		{
			"bufferView":5,
			"componentType":5126,
			"count":176,
			"type":"VEC2"
		},
		{
			"bufferView":6,
			"componentType":5123,
			"count":176,
			"normalized":true,
			"type":"VEC4"
		},
		{
			"bufferView":7,
			"componentType":5123,
			"count":176,
			"normalized":true,
			"type":"VEC4"
		},
		{
			"bufferView":8,
			"componentType":5123,
			"count":852,
			"type":"SCALAR"
		},
		{
			"bufferView":9,
			"componentType":5126,
			"count":2850,
			"max":[
				0.44510388374328613,
				1.5988003015518188,
				1.0061304569244385
			],
			"min":[
				-0.41406935453414917,
				0.06412814557552338,
				-0.35707151889801025
			],
			"type":"VEC3"
		},
		{
			"bufferView":10,
			"componentType":5126,
			"count":2850,
			"type":"VEC3"
		},
		{
			"bufferView":11,
			"componentType":5126,
			"count":2850,
			"type":"VEC2"
		},
		{
			"bufferView":12,
			"componentType":5126,
			"count":2850,
			"type":"VEC2"
		},
		{
			"bufferView":13,
			"componentType":5126,
			"count":2850,
			"type":"VEC2"
		},
		{
			"bufferView":14,
			"componentType":5126,
			"count":2850,
			"type":"VEC2"
		},
		{
			"bufferView":15,
			"componentType":5123,
			"count":2850,
			"normalized":true,
			"type":"VEC4"
		},
		{
			"bufferView":16,
			"componentType":5123,
			"count":2850,
			"normalized":true,
			"type":"VEC4"
		},
		{
			"bufferView":17,
			"componentType":5123,
			"count":13320,
			"type":"SCALAR"
		},
		{
			"bufferView":18,
			"componentType":5126,
			"count":76,
			"max":[
				0.1964074820280075,
				1.5190883874893188,
				0.6408686637878418
			],
			"min":[
				-0.1964074820280075,
				1.2253203392028809,
				0.48943474888801575
			],
			"type":"VEC3"
		},
		{
			"bufferView":19,
			"componentType":5126,
			"count":76,
			"type":"VEC3"
		},
		{
			"bufferView":20,
			"componentType":5126,
			"count":76,
			"type":"VEC2"
		},
		{
			"bufferView":21,
			"componentType":5126,
			"count":76,
			"type":"VEC2"
		},
		{
			"bufferView":22,
			"componentType":5126,
			"count":76,
			"type":"VEC2"
		},
		{
			"bufferView":23,
			"componentType":5126,
			"count":76,
			"type":"VEC2"
		},
		{
			"bufferView":24,
			"componentType":5123,
			"count":76,
			"normalized":true,
			"type":"VEC4"
		},
		{
			"bufferView":25,
			"componentType":5123,
			"count":76,
			"normalized":true,
			"type":"VEC4"
		},
		{
			"bufferView":26,
			"componentType":5123,
			"count":336,
			"type":"SCALAR"
		},
		{
			"bufferView":27,
			"componentType":5126,
			"count":76,
			"max":[
				0.1964074820280075,
				1.5190883874893188,
				0.6408686637878418
			],
			"min":[
				-0.1964074820280075,
				1.2253203392028809,
				0.48943474888801575
			],
			"type":"VEC3"
		},
		{
			"bufferView":28,
			"componentType":5126,
			"count":76,
			"type":"VEC3"
		},
		{
			"bufferView":29,
			"componentType":5126,
			"count":76,
			"type":"VEC2"
		},
		{
			"bufferView":30,
			"componentType":5126,
			"count":76,
			"type":"VEC2"
		},
		{
			"bufferView":31,
			"componentType":5126,
			"count":76,
			"type":"VEC2"
		},
		{
			"bufferView":32,
			"componentType":5126,
			"count":76,
			"type":"VEC2"
		},
		{
			"bufferView":33,
			"componentType":5123,
			"count":76,
			"normalized":true,
			"type":"VEC4"
		},
		{
			"bufferView":34,
			"componentType":5123,
			"count":76,
			"normalized":true,
			"type":"VEC4"
		},
		{
			"bufferView":35,
			"componentType":5126,
			"count":126,
			"max":[
				0.20178431272506714,
				1.540485143661499,
				0.6535409688949585
			],
			"min":[
				-0.20178431272506714,
				1.2455297708511353,
				0.48846521973609924
			],
			"type":"VEC3"
		},
		{
			"bufferView":36,
			"componentType":5126,
			"count":126,
			"type":"VEC3"
		},
		{
			"bufferView":37,
			"componentType":5126,
			"count":126,
			"type":"VEC2"
		},
		{
			"bufferView":38,
			"componentType":5126,
			"count":126,
			"type":"VEC2"
		},
		{
			"bufferView":39,
			"componentType":5126,
			"count":126,
			"type":"VEC2"
		},
		{
			"bufferView":40,
			"componentType":5126,
			"count":126,
			"type":"VEC2"
		},
		{
			"bufferView":41,
			"componentType":5123,
			"count":126,
			"normalized":true,
			"type":"VEC4"
		},
		{
			"bufferView":42,
			"componentType":5123,
			"count":126,
			"normalized":true,
			"type":"VEC4"
		},
		{
			"bufferView":43,
			"componentType":5123,
			"count":546,
			"type":"SCALAR"
		},
		{
			"bufferView":44,
			"componentType":5126,
			"count":142,
			"max":[
				0.20178431272506714,
				1.540485143661499,
				0.6604541540145874
			],
			"min":[
				-0.20178431272506714,
				1.2455297708511353,
				0.48846521973609924
			],
			"type":"VEC3"
		},
		{
			"bufferView":45,
			"componentType":5126,
			"count":142,
			"type":"VEC3"
		},
		{
			"bufferView":46,
			"componentType":5126,
			"count":142,
			"type":"VEC2"
		},
		{
			"bufferView":47,
			"componentType":5126,
			"count":142,
			"type":"VEC2"
		},
		{
			"bufferView":48,
			"componentType":5126,
			"count":142,
			"type":"VEC2"
		},
		{
			"bufferView":49,
			"componentType":5126,
			"count":142,
			"type":"VEC2"
		},
		{
			"bufferView":50,
			"componentType":5123,
			"count":142,
			"normalized":true,
			"type":"VEC4"
		},
		{
			"bufferView":51,
			"componentType":5123,
			"count":142,
			"normalized":true,
			"type":"VEC4"
		},
		{
			"bufferView":52,
			"componentType":5123,
			"count":642,
			"type":"SCALAR"
		},
		{
			"bufferView":53,
			"componentType":5126,
			"count":266,
			"max":[
				0.20178431272506714,
				1.540485143661499,
				0.6472581624984741
			],
			"min":[
				-0.20178431272506714,
				1.2455297708511353,
				0.45801684260368347
			],
			"type":"VEC3"
		},
		{
			"bufferView":54,
			"componentType":5126,
			"count":266,
			"type":"VEC3"
		},
		{
			"bufferView":55,
			"componentType":5126,
			"count":266,
			"type":"VEC2"
		},
		{
			"bufferView":56,
			"componentType":5126,
			"count":266,
			"type":"VEC2"
		},
		{
			"bufferView":57,
			"componentType":5126,
			"count":266,
			"type":"VEC2"
		},
		{
			"bufferView":58,
			"componentType":5126,
			"count":266,
			"type":"VEC2"
		},
		{
			"bufferView":59,
			"componentType":5123,
			"count":266,
			"normalized":true,
			"type":"VEC4"
		},
		{
			"bufferView":60,
			"componentType":5123,
			"count":266,
			"normalized":true,
			"type":"VEC4"
		},
		{
			"bufferView":61,
			"componentType":5123,
			"count":1164,
			"type":"SCALAR"
		},
		{
			"bufferView":62,
			"componentType":5126,
			"count":306,
			"max":[
				0.20223817229270935,
				1.540485143661499,
				0.6514352560043335
			],
			"min":[
				-0.20223817229270935,
				1.2455297708511353,
				0.45801684260368347
			],
			"type":"VEC3"
		},
		{
			"bufferView":63,
			"componentType":5126,
			"count":306,
			"type":"VEC3"
		},
		{
			"bufferView":64,
			"componentType":5126,
			"count":306,
			"type":"VEC2"
		},
		{
			"bufferView":65,
			"componentType":5126,
			"count":306,
			"type":"VEC2"
		},
		{
			"bufferView":66,
			"componentType":5126,
			"count":306,
			"type":"VEC2"
		},
		{
			"bufferView":67,
			"componentType":5126,
			"count":306,
			"type":"VEC2"
		},
		{
			"bufferView":68,
			"componentType":5123,
			"count":306,
			"normalized":true,
			"type":"VEC4"
		},
		{
			"bufferView":69,
			"componentType":5123,
			"count":306,
			"normalized":true,
			"type":"VEC4"
		},
		{
			"bufferView":70,
			"componentType":5123,
			"count":1356,
			"type":"SCALAR"
		},
		{
			"bufferView":71,
			"componentType":5126,
			"count":43,
			"max":[
				1.9999999949504854e-06,
				-0.9964759945869446,
				14.309196472167969
			],
			"min":[
				-1.2612090110778809,
				-1.4465759992599487,
				12.747777938842773
			],
			"type":"VEC3"
		},
		{
			"bufferView":72,
			"componentType":5126,
			"count":43,
			"type":"VEC3"
		},
		{
			"bufferView":73,
			"componentType":5126,
			"count":43,
			"type":"VEC2"
		},
		{
			"bufferView":74,
			"componentType":5123,
			"count":141,
			"type":"SCALAR"
		},
		{
			"bufferView":75,
			"componentType":5126,
			"count":43,
			"max":[
				1.2609210014343262,
				-0.9966149926185608,
				14.309196472167969
			],
			"min":[
				1.9999999949504854e-06,
				-1.4465759992599487,
				12.747787475585938
			],
			"type":"VEC3"
		},
		{
			"bufferView":76,
			"componentType":5126,
			"count":43,
			"type":"VEC3"
		},
		{
			"bufferView":77,
			"componentType":5126,
			"count":43,
			"type":"VEC2"
		},
		{
			"bufferView":78,
			"componentType":5123,
			"count":141,
			"type":"SCALAR"
		},
		{
			"bufferView":79,
			"componentType":5126,
			"count":43,
			"max":[
				1.9999999949504854e-06,
				-0.9964759945869446,
				14.309196472167969
			],
			"min":[
				-1.2612090110778809,
				-1.4465759992599487,
				12.747777938842773
			],
			"type":"VEC3"
		},
		{
			"bufferView":80,
			"componentType":5126,
			"count":43,
			"type":"VEC3"
		},
		{
			"bufferView":81,
			"componentType":5126,
			"count":43,
			"type":"VEC2"
		},
		{
			"bufferView":82,
			"componentType":5126,
			"count":43,
			"max":[
				1.2609210014343262,
				-0.9966149926185608,
				14.309196472167969
			],
			"min":[
				1.9999999949504854e-06,
				-1.4465759992599487,
				12.747787475585938
			],
			"type":"VEC3"
		},
		{
			"bufferView":83,
			"componentType":5126,
			"count":43,
			"type":"VEC3"
		},
		{
			"bufferView":84,
			"componentType":5126,
			"count":43,
			"type":"VEC2"
		},
		{
			"bufferView":85,
			"componentType":5126,
			"count":43,
			"max":[
				1.9999999949504854e-06,
				-0.9964759945869446,
				14.309196472167969
			],
			"min":[
				-1.2612090110778809,
				-1.4465759992599487,
				12.747777938842773
			],
			"type":"VEC3"
		},
		{
			"bufferView":86,
			"componentType":5126,
			"count":43,
			"type":"VEC3"
		},
		{
			"bufferView":87,
			"componentType":5126,
			"count":43,
			"type":"VEC2"
		},
		{
			"bufferView":88,
			"componentType":5126,
			"count":43,
			"max":[
				1.2609210014343262,
				-0.9966149926185608,
				14.309196472167969
			],
			"min":[
				1.9999999949504854e-06,
				-1.4465759992599487,
				12.747787475585938
			],
			"type":"VEC3"
		},
		{
			"bufferView":89,
			"componentType":5126,
			"count":43,
			"type":"VEC3"
		},
		{
			"bufferView":90,
			"componentType":5126,
			"count":43,
			"type":"VEC2"
		},
		{
			"bufferView":91,
			"componentType":5126,
			"count":43,
			"max":[
				1.9999999949504854e-06,
				-0.9964759945869446,
				14.309196472167969
			],
			"min":[
				-1.2612090110778809,
				-1.4465759992599487,
				12.747777938842773
			],
			"type":"VEC3"
		},
		{
			"bufferView":92,
			"componentType":5126,
			"count":43,
			"type":"VEC3"
		},
		{
			"bufferView":93,
			"componentType":5126,
			"count":43,
			"type":"VEC2"
		},
		{
			"bufferView":94,
			"componentType":5126,
			"count":43,
			"max":[
				1.2609210014343262,
				-0.9966149926185608,
				14.309196472167969
			],
			"min":[
				1.9999999949504854e-06,
				-1.4465759992599487,
				12.747787475585938
			],
			"type":"VEC3"
		},
		{
			"bufferView":95,
			"componentType":5126,
			"count":43,
			"type":"VEC3"
		},
		{
			"bufferView":96,
			"componentType":5126,
			"count":43,
			"type":"VEC2"
		}
	],
	"bufferViews":[
		{
			"buffer":0,
			"byteLength":2112,
			"byteOffset":0,
			"target":34962
		},
		{
			"buffer":0,
			"byteLength":2112,
			"byteOffset":2112,
			"target":34962
		},
		{
			"buffer":0,
			"byteLength":1408,
			"byteOffset":4224,
			"target":34962
		},
		{
			"buffer":0,
			"byteLength":1408,
			"byteOffset":5632,
			"target":34962
		},
		{
			"buffer":0,
			"byteLength":1408,
			"byteOffset":7040,
			"target":34962
		},
		{
			"buffer":0,
			"byteLength":1408,
			"byteOffset":8448,
			"target":34962
		},
		{
			"buffer":0,
			"byteLength":1408,
			"byteOffset":9856,
			"target":34962
		},
		{
			"buffer":0,
			"byteLength":1408,
			"byteOffset":11264,
			"target":34962
		},
		{
			"buffer":0,
			"byteLength":1704,
			"byteOffset":12672,
			"target":34963
		},
		{
			"buffer":0,
			"byteLength":34200,
			"byteOffset":14376,
			"target":34962
		},
		{
			"buffer":0,
			"byteLength":34200,
			"byteOffset":48576,
			"target":34962
		},
		{
			"buffer":0,
			"byteLength":22800,
			"byteOffset":82776,
			"target":34962
		},
		{
			"buffer":0,
			"byteLength":22800,
			"byteOffset":105576,
			"target":34962
		},
		{
			"buffer":0,
			"byteLength":22800,
			"byteOffset":128376,
			"target":34962
		},
		{
			"buffer":0,
			"byteLength":22800,
			"byteOffset":151176,
			"target":34962
		},
		{
			"buffer":0,
			"byteLength":22800,
			"byteOffset":173976,
			"target":34962
		},
		{
			"buffer":0,
			"byteLength":22800,
			"byteOffset":196776,
			"target":34962
		},
		{
			"buffer":0,
			"byteLength":26640,
			"byteOffset":219576,
			"target":34963
		},
		{
			"buffer":0,
			"byteLength":912,
			"byteOffset":246216,
			"target":34962
		},
		{
			"buffer":0,
			"byteLength":912,
			"byteOffset":247128,
			"target":34962
		},
		{
			"buffer":0,
			"byteLength":608,
			"byteOffset":248040,
			"target":34962
		},
		{
			"buffer":0,
			"byteLength":608,
			"byteOffset":248648,
			"target":34962
		},
		{
			"buffer":0,
			"byteLength":608,
			"byteOffset":249256,
			"target":34962
		},
		{
			"buffer":0,
			"byteLength":608,
			"byteOffset":249864,
			"target":34962
		},
		{
			"buffer":0,
			"byteLength":608,
			"byteOffset":250472,
			"target":34962
		},
		{
			"buffer":0,
			"byteLength":608,
			"byteOffset":251080,
			"target":34962
		},
		{
			"buffer":0,
			"byteLength":672,
			"byteOffset":251688,
			"target":34963
		},
		{
			"buffer":0,
			"byteLength":912,
			"byteOffset":252360,
			"target":34962
		},
		{
			"buffer":0,
			"byteLength":912,
			"byteOffset":253272,
			"target":34962
		},
		{
			"buffer":0,
			"byteLength":608,
			"byteOffset":254184,
			"target":34962
		},
		{
			"buffer":0,
			"byteLength":608,
			"byteOffset":254792,
			"target":34962
		},
		{
			"buffer":0,
			"byteLength":608,
			"byteOffset":255400,
			"target":34962
		},
		{
			"buffer":0,
			"byteLength":608,
			"byteOffset":256008,
			"target":34962
		},
		{
			"buffer":0,
			"byteLength":608,
			"byteOffset":256616,
			"target":34962
		},
		{
			"buffer":0,
			"byteLength":608,
			"byteOffset":257224,
			"target":34962
		},
		{
			"buffer":0,
			"byteLength":1512,
			"byteOffset":257832,
			"target":34962
		},
		{
			"buffer":0,
			"byteLength":1512,
			"byteOffset":259344,
			"target":34962
		},
		{
			"buffer":0,
			"byteLength":1008,
			"byteOffset":260856,
			"target":34962
		},
		{
			"buffer":0,
			"byteLength":1008,
			"byteOffset":261864,
			"target":34962
		},
		{
			"buffer":0,
			"byteLength":1008,
			"byteOffset":262872,
			"target":34962
		},
		{
			"buffer":0,
			"byteLength":1008,
			"byteOffset":263880,
			"target":34962
		},
		{
			"buffer":0,
			"byteLength":1008,
			"byteOffset":264888,
			"target":34962
		},
		{
			"buffer":0,
			"byteLength":1008,
			"byteOffset":265896,
			"target":34962
		},
		{
			"buffer":0,
			"byteLength":1092,
			"byteOffset":266904,
			"target":34963
		},
		{
			"buffer":0,
			"byteLength":1704,
			"byteOffset":267996,
			"target":34962
		},
		{
			"buffer":0,
			"byteLength":1704,
			"byteOffset":269700,
			"target":34962
		},
		{
			"buffer":0,
			"byteLength":1136,
			"byteOffset":271404,
			"target":34962
		},
		{
			"buffer":0,
			"byteLength":1136,
			"byteOffset":272540,
			"target":34962
		},
		{
			"buffer":0,
			"byteLength":1136,
			"byteOffset":273676,
			"target":34962
		},
		{
			"buffer":0,
			"byteLength":1136,
			"byteOffset":274812,
			"target":34962
		},
		{
			"buffer":0,
			"byteLength":1136,
			"byteOffset":275948,
			"target":34962
		},
		{
			"buffer":0,
			"byteLength":1136,
			"byteOffset":277084,
			"target":34962
		},
		{
			"buffer":0,
			"byteLength":1284,
			"byteOffset":278220,
			"target":34963
		},
		{
			"buffer":0,
			"byteLength":3192,
			"byteOffset":279504,
			"target":34962
		},
		{
			"buffer":0,
			"byteLength":3192,
			"byteOffset":282696,
			"target":34962
		},
		{
			"buffer":0,
			"byteLength":2128,
			"byteOffset":285888,
			"target":34962
		},
		{
			"buffer":0,
			"byteLength":2128,
			"byteOffset":288016,
			"target":34962
		},
		{
			"buffer":0,
			"byteLength":2128,
			"byteOffset":290144,
			"target":34962
		},
		{
			"buffer":0,
			"byteLength":2128,
			"byteOffset":292272,
			"target":34962
		},
		{
			"buffer":0,
			"byteLength":2128,
			"byteOffset":294400,
			"target":34962
		},
		{
			"buffer":0,
			"byteLength":2128,
			"byteOffset":296528,
			"target":34962
		},
		{
			"buffer":0,
			"byteLength":2328,
			"byteOffset":298656,
			"target":34963
		},
		{
			"buffer":0,
			"byteLength":3672,
			"byteOffset":300984,
			"target":34962
		},
		{
			"buffer":0,
			"byteLength":3672,
			"byteOffset":304656,
			"target":34962
		},
		{
			"buffer":0,
			"byteLength":2448,
			"byteOffset":308328,
			"target":34962
		},
		{
			"buffer":0,
			"byteLength":2448,
			"byteOffset":310776,
			"target":34962
		},
		{
			"buffer":0,
			"byteLength":2448,
			"byteOffset":313224,
			"target":34962
		},
		{
			"buffer":0,
			"byteLength":2448,
			"byteOffset":315672,
			"target":34962
		},
		{
			"buffer":0,
			"byteLength":2448,
			"byteOffset":318120,
			"target":34962
		},
		{
			"buffer":0,
			"byteLength":2448,
			"byteOffset":320568,
			"target":34962
		},
		{
			"buffer":0,
			"byteLength":2712,
			"byteOffset":323016,
			"target":34963
		},
		{
			"buffer":0,
			"byteLength":516,
			"byteOffset":325728,
			"target":34962
		},
		{
			"buffer":0,
			"byteLength":516,
			"byteOffset":326244,
			"target":34962
		},
		{
			"buffer":0,
			"byteLength":344,
			"byteOffset":326760,
			"target":34962
		},
		{
			"buffer":0,
			"byteLength":282,
			"byteOffset":327104,
			"target":34963
		},
		{
			"buffer":0,
			"byteLength":516,
			"byteOffset":327388,
			"target":34962
		},
		{
			"buffer":0,
			"byteLength":516,
			"byteOffset":327904,
			"target":34962
		},
		{
			"buffer":0,
			"byteLength":344,
			"byteOffset":328420,
			"target":34962
		},
		{
			"buffer":0,
			"byteLength":282,
			"byteOffset":328764,
			"target":34963
		},
		{
			"buffer":0,
			"byteLength":516,
			"byteOffset":329048,
			"target":34962
		},
		{
			"buffer":0,
			"byteLength":516,
			"byteOffset":329564,
			"target":34962
		},
		{
			"buffer":0,
			"byteLength":344,
			"byteOffset":330080,
			"target":34962
		},
		{
			"buffer":0,
			"byteLength":516,
			"byteOffset":330424,
			"target":34962
		},
		{
			"buffer":0,
			"byteLength":516,
			"byteOffset":330940,
			"target":34962
		},
		{
			"buffer":0,
			"byteLength":344,
			"byteOffset":331456,
			"target":34962
		},
		{
			"buffer":0,
			"byteLength":516,
			"byteOffset":331800,
			"target":34962
		},
		{
			"buffer":0,
			"byteLength":516,
			"byteOffset":332316,
			"target":34962
		},
		{
			"buffer":0,
			"byteLength":344,
			"byteOffset":332832,
			"target":34962
		},
		{
			"buffer":0,
			"byteLength":516,
			"byteOffset":333176,
			"target":34962
		},
		{
			"buffer":0,
			"byteLength":516,
			"byteOffset":333692,
			"target":34962
		},
		{
			"buffer":0,
			"byteLength":344,
			"byteOffset":334208,
			"target":34962
		},
		{
			"buffer":0,
			"byteLength":516,
			"byteOffset":334552,
			"target":34962
		},
		{
			"buffer":0,
			"byteLength":516,
			"byteOffset":335068,
			"target":34962
		},
		{
			"buffer":0,
			"byteLength":344,
			"byteOffset":335584,
			"target":34962
		},
		{
			"buffer":0,
			"byteLength":516,
			"byteOffset":335928,
			"target":34962
		},
		{
			"buffer":0,
			"byteLength":516,
			"byteOffset":336444,
			"target":34962
		},
		{
			"buffer":0,
			"byteLength":344,
			"byteOffset":336960,
			"target":34962
		}
	],
	"samplers":[
		{
			"magFilter":9729,
			"minFilter":9987
		}
	],
	"buffers":[
		{
			"byteLength":337304,
			"uri":"yoshi.bin"
		}
	]
}
