{
	"asset":{
		"generator":"Khronos glTF Blender I/O v5.2.39",
		"version":"2.0"
	},
	"scene":0,
	"scenes":[
		{
			"name":"Scene",
			"nodes":[
				3,
				5,
				9,
				12
			]
		}
	],
	"nodes":[
		{
			"mesh":0,
			"name":"Object_4"
		},
		{
			"mesh":1,
			"name":"Object_5"
		},
		{
			"children":[
				0,
				1
			],
			"name":"8b913d56fa6647b7b3376d6cec4c3ecb.obj.cleaner.materialmerger.gles"
		},
		{
			"children":[
				2
			],
			"name":"Sketchfab_model",
			"rotation":[
				-0.5,
				-0.5,
				-0.5,
				0.5
			],
			"scale":[
				0.10351771116256714,
				0.10351771116256714,
				0.10351771116256714
			],
			"translation":[
				0.030483730137348175,
				-1.0220746844424866e-05,
				0.01267540454864502
			]
		},
		{
			"name":"0RJNWRF531XBTNNR38IJ74PTS.obj.cleaner.materialmerger.gles"
		},
		{
			"children":[
				4
			],
			"name":"Sketchfab_model.001",
			"rotation":[
				-0.5,
				-0.5,
				-0.5,
				0.5
			],
			"scale":[
				0.10351771116256714,
				0.10351771116256714,
				0.10351771116256714
			],
			"translation":[
				0.030483730137348175,
				-1.0220746844424866e-05,
				0.01267540454864502
			]
		},
		{
			"mesh":2,
			"name":"Object_4.001"
		},
		{
			"mesh":3,
			"name":"Object_5.001"
		},
		{
			"children":[
				6,
				7
			],
			"name":"8b913d56fa6647b7b3376d6cec4c3ecb.obj.cleaner.materialmerger.gles.001"
		},
		{
			"children":[
				8
			],
			"name":"Sketchfab_model.002",
			"rotation":[
				-0.5,
				-0.5,
				-0.5,
				0.5
			],
			"scale":[
				0.10351771116256714,
				0.10351771116256714,
				0.10351771116256714
			],
			"translation":[
				0.030483730137348175,
				-1.0220746844424866e-05,
				0.01267540454864502
			]
		},
		{
			"mesh":4,
			"name":"Object_2.001",
			"translation":[
				-0.3219796419143677,
				-0.021249115467071533,
				0.03258681297302246
			]
		},
		{
			"children":[
				10
			],
			"name":"0RJNWRF531XBTNNR38IJ74PTS.obj.cleaner.materialmerger.gles.001"
		},
		{
			"children":[
				11
			],
			"name":"Sketchfab_model.003",
			"rotation":[
				-0.7071069478988647,
				0,
				0,
				0.7071066498756409
			],
			"scale":[
				0.7003211379051208,
				0.7003211975097656,
				0.7003211975097656
			],
			"translation":[
				0.219247967004776,
				0.7967512011528015,
				-0.019588667899370193
			]
		}
	],
	"materials":[
		{
			"alphaMode":"MASK",
			"doubleSided":true,
			"name":"Pupil__m_PupilR",
			"pbrMetallicRoughness":{
				"baseColorFactor":[
					1,
					1,
					1,
					0
				],
				"baseColorTexture":{
					"index":0
				},
				"metallicFactor":0,
				"roughnessFactor":0.6000000238418579
			}
		},
		{
			"alphaMode":"MASK",
			"doubleSided":true,
			"name":"Pupil__m_PupilL",
			"pbrMetallicRoughness":{
				"baseColorFactor":[
					1,
					1,
					1,
					0
				],
				"metallicFactor":0,
				"roughnessFactor":0.6000000238418579
			}
		},
		{
			"alphaMode":"MASK",
			"doubleSided":true,
			"name":"Pupil__m_PupilR.001",
			"pbrMetallicRoughness":{
				"baseColorFactor":[
					1,
					1,
					1,
					0
				],
				"baseColorTexture":{
					"index":1
				},
				"metallicFactor":0,
				"roughnessFactor":0.6000000238418579
			}
		},
		{
			"alphaMode":"MASK",
			"doubleSided":true,
			"name":"Pupil__m_PupilL.001",
			"pbrMetallicRoughness":{
				"baseColorFactor":[
					1,
					1,
					1,
					0
				],
				"metallicFactor":0,
				"roughnessFactor":0.6000000238418579
			}
		},
		{
			"doubleSided":true,
			"name":"TexMap.001",
			"pbrMetallicRoughness":{
				"baseColorTexture":{
					"index":2
				},
				"metallicFactor":0
			}
		}
	],
	"meshes":[
		{
			"name":"Object_2",
			"primitives":[
				{
					"attributes":{
						"POSITION":0,
						"NORMAL":1,
						"TEXCOORD_0":2
					},
					"indices":3,
					"material":0
				}
			]
		},
		{
			"name":"Object_3",
			"primitives":[
				{
					"attributes":{
						"POSITION":4,
						"NORMAL":5,
						"TEXCOORD_0":6
					},
					"indices":7,
					"material":1
				}
			]
		},
		{
			"name":"Object_2.001",
			"primitives":[
				{
					"attributes":{
						"POSITION":8,
						"NORMAL":9,
						"TEXCOORD_0":10
					},
					"indices":3,
					"material":2
				}
			]
		},
		{
			"name":"Object_3.001",
			"primitives":[
				{
					"attributes":{
						"POSITION":11,
						"NORMAL":12,
						"TEXCOORD_0":13
					},
					"indices":7,
					"material":3
				}
			]
		},
		{
			"name":"Object_0.003",
			"primitives":[
				{
					"attributes":{
						"POSITION":14,
						"NORMAL":15,
						"TEXCOORD_0":16
					},
					"indices":17,
					"material":4
				}
			]
		}
	],
	"textures":[
		{
			"sampler":0,
			"source":0
		},
		{
			"sampler":0,
			"source":0
		},
		{
			"sampler":0,
			"source":1
		}
	],
	"images":[
		{
			"mimeType":"image/png",
			"name":"Image_0",
			"uri":"Image_0.png"
		},
		{
			"mimeType":"image/jpeg",
			"name":"Image_0",
			"uri":"Image_0.jpg"
		}
	],
	"accessors":[
		{
			"bufferView":0,
			"componentType":5126,
			"count":43,
			"max":[
				1.9999999949504854e-06,
				-0.9964759945869446,
				14.309196472167969
			],
			"min":[
				-1.2612090110778809,
				-1.4465759992599487,
				12.747777938842773
			],
			"type":"VEC3"
		},
		{
			"bufferView":1,
			"componentType":5126,
			"count":43,
			"type":"VEC3"
		},
		{
			"bufferView":2,
			"componentType":5126,
			"count":43,
			"type":"VEC2"
		},
		{
			"bufferView":3,
			"componentType":5123,
			"count":141,
			"type":"SCALAR"
		},
		{
			"bufferView":4,
			"componentType":5126,
			"count":43,
			"max":[
				1.2609210014343262,
				-0.9966149926185608,
				14.309196472167969
			],
			"min":[
				1.9999999949504854e-06,
				-1.4465759992599487,
				12.747787475585938
			],
			"type":"VEC3"
		},
		{
			"bufferView":5,
			"componentType":5126,
			"count":43,
			"type":"VEC3"
		},
		{
			"bufferView":6,
			"componentType":5126,
			"count":43,
			"type":"VEC2"
		},
		{
			"bufferView":7,
			"componentType":5123,
			"count":141,
			"type":"SCALAR"
		},
		{
			"bufferView":8,
			"componentType":5126,
			"count":43,
			"max":[
				1.9999999949504854e-06,
				-0.9964759945869446,
				14.309196472167969
			],
			"min":[
				-1.2612090110778809,
				-1.4465759992599487,
				12.747777938842773
			],
			"type":"VEC3"
		},
		{
			"bufferView":9,
			"componentType":5126,
			"count":43,
			"type":"VEC3"
		},
		{
			"bufferView":10,
			"componentType":5126,
			"count":43,
			"type":"VEC2"
		},
		{
			"bufferView":11,
			"componentType":5126,
			"count":43,
			"max":[
				1.2609210014343262,
				-0.9966149926185608,
				14.309196472167969
			],
			"min":[
				1.9999999949504854e-06,
				-1.4465759992599487,
				12.747787475585938
			],
			"type":"VEC3"
		},
		{
			"bufferView":12,
			"componentType":5126,
			"count":43,
			"type":"VEC3"
		},
		{
			"bufferView":13,
			"componentType":5126,
			"count":43,
			"type":"VEC2"
		},
		{
			"bufferView":14,
			"componentType":5126,
			"count":6129,
			"max":[
				0.5390980243682861,
				1.25,
				1.1697750091552734
			],
			"min":[
				-0.5390980243682861,
				-1.25,
				-1.1697750091552734
			],
			"type":"VEC3"
		},
		{
			"bufferView":15,
			"componentType":5126,
			"count":6129,
			"type":"VEC3"
		},
		{
			"bufferView":16,
			"componentType":5126,
			"count":6129,
			"type":"VEC2"
		},
		{
			"bufferView":17,
			"componentType":5123,
			"count":24198,
			"type":"SCALAR"
		}
	],
	"bufferViews":[
		{
			"buffer":0,
			"byteLength":516,
			"byteOffset":0,
			"target":34962
		},
		{
			"buffer":0,
			"byteLength":516,
			"byteOffset":516,
			"target":34962
		},
		{
			"buffer":0,
			"byteLength":344,
			"byteOffset":1032,
			"target":34962
		},
		{
			"buffer":0,
			"byteLength":282,
			"byteOffset":1376,
			"target":34963
		},
		{
			"buffer":0,
			"byteLength":516,
			"byteOffset":1660,
			"target":34962
		},
		{
			"buffer":0,
			"byteLength":516,
			"byteOffset":2176,
			"target":34962
		},
		{
			"buffer":0,
			"byteLength":344,
			"byteOffset":2692,
			"target":34962
		},
		{
			"buffer":0,
			"byteLength":282,
			"byteOffset":3036,
			"target":34963
		},
		{
			"buffer":0,
			"byteLength":516,
			"byteOffset":3320,
			"target":34962
		},
		{
			"buffer":0,
			"byteLength":516,
			"byteOffset":3836,
			"target":34962
		},
		{
			"buffer":0,
			"byteLength":344,
			"byteOffset":4352,
			"target":34962
		},
		{
			"buffer":0,
			"byteLength":516,
			"byteOffset":4696,
			"target":34962
		},
		{
			"buffer":0,
			"byteLength":516,
			"byteOffset":5212,
			"target":34962
		},
		{
			"buffer":0,
			"byteLength":344,
			"byteOffset":5728,
			"target":34962
		},
		{
			"buffer":0,
			"byteLength":73548,
			"byteOffset":6072,
			"target":34962
		},
		{
			"buffer":0,
			"byteLength":73548,
			"byteOffset":79620,
			"target":34962
		},
		{
			"buffer":0,
			"byteLength":49032,
			"byteOffset":153168,
			"target":34962
		},
		{
			"buffer":0,
			"byteLength":48396,
			"byteOffset":202200,
			"target":34963
		}
	],
	"samplers":[
		{
			"magFilter":9729,
			"minFilter":9987
		}
	],
	"buffers":[
		{
			"byteLength":250596,
			"uri":"mario.bin"
		}
	]
}
