{
	"asset":{
		"generator":"Khronos glTF Blender I/O v5.2.39",
		"version":"2.0"
	},
	"scene":0,
	"scenes":[
		{
			"name":"Scene",
			"nodes":[
				4,
				6,
				12
			]
		}
	],
	"nodes":[
		{
			"mesh":0,
			"name":"Object_3"
		},
		{
			"mesh":1,
			"name":"Object_4"
		},
		{
			"mesh":2,
			"name":"Object_5"
		},
		{
			"children":[
				0,
				1,
				2
			],
			"name":"8b913d56fa6647b7b3376d6cec4c3ecb.obj.cleaner.materialmerger.gles"
		},
		{
			"children":[
				3
			],
			"name":"Sketchfab_model",
			"rotation":[
				-0.5,
				-0.5,
				-0.5,
				0.5
			],
			"scale":[
				0.10351771116256714,
				0.10351771116256714,
				0.10351771116256714
			],
			"translation":[
				0.030483730137348175,
				-1.0220746844424866e-05,
				0.01267540454864502
			]
		},
		{
			"name":"0RJNWRF531XBTNNR38IJ74PTS.obj.cleaner.materialmerger.gles"
		},
		{
			"children":[
				5
			],
			"name":"Sketchfab_model.001",
			"rotation":[
				-0.5,
				-0.5,
				-0.5,
				0.5
			],
			"scale":[
				0.10351771116256714,
				0.10351771116256714,
				0.10351771116256714
			],
			"translation":[
				0.030483730137348175,
				-1.0220746844424866e-05,
				0.01267540454864502
			]
		},
		{
			"mesh":3,
			"name":"Object_2"
		},
		{
			"mesh":4,
			"name":"Object_3.001"
		},
		{
			"mesh":5,
			"name":"Object_4.001"
		},
		{
			"mesh":6,
			"name":"Object_5.001"
		},
		{
			"children":[
				7,
				8,
				9,
				10
			],
			"name":"8b913d56fa6647b7b3376d6cec4c3ecb.obj.cleaner.materialmerger.gles.001"
		},
		{
			"children":[
				11
			],
			"name":"Sketchfab_model.002",
			"rotation":[
				-0.5,
				-0.5,
				-0.5,
				0.5
			],
			"scale":[
				0.10351771116256714,
				0.10351771116256714,
				0.10351771116256714
			],
			"translation":[
				0.030483730137348175,
				-1.0220746844424866e-05,
				0.01267540454864502
			]
		}
	],
	"materials":[
		{
			"doubleSided":true,
			"name":"Body__m_Eye",
			"pbrMetallicRoughness":{
				"baseColorTexture":{
					"index":0
				},
				"metallicFactor":0,
				"roughnessFactor":0.6000000238418579
			}
		},
		{
			"alphaMode":"MASK",
			"doubleSided":true,
			"name":"Pupil__m_PupilR",
			"pbrMetallicRoughness":{
				"baseColorFactor":[
					1,
					1,
					1,
					0
				],
				"baseColorTexture":{
					"index":1
				},
				"metallicFactor":0,
				"roughnessFactor":0.6000000238418579
			}
		},
		{
			"alphaMode":"MASK",
			"doubleSided":true,
			"name":"Pupil__m_PupilL",
			"pbrMetallicRoughness":{
				"baseColorFactor":[
					1,
					1,
					1,
					0
				],
				"metallicFactor":0,
				"roughnessFactor":0.6000000238418579
			}
		},
		{
			"doubleSided":true,
			"name":"Body__m_Body.001",
			"pbrMetallicRoughness":{
				"baseColorTexture":{
					"index":2
				},
				"metallicFactor":0,
				"roughnessFactor":0.6000000238418579
			}
		},
		{
			"doubleSided":true,
			"name":"Body__m_Eye.001",
			"pbrMetallicRoughness":{
				"baseColorTexture":{
					"index":3
				},
				"metallicFactor":0,
				"roughnessFactor":0.6000000238418579
			}
		},
		{
			"alphaMode":"MASK",
			"doubleSided":true,
			"name":"Pupil__m_PupilR.001",
			"pbrMetallicRoughness":{
				"baseColorFactor":[
					1,
					1,
					1,
					0
				],
				"baseColorTexture":{
					"index":4
				},
				"metallicFactor":0,
				"roughnessFactor":0.6000000238418579
			}
		},
		{
			"alphaMode":"MASK",
			"doubleSided":true,
			"name":"Pupil__m_PupilL.001",
			"pbrMetallicRoughness":{
				"baseColorFactor":[
					1,
					1,
					1,
					0
				],
				"metallicFactor":0,
				"roughnessFactor":0.6000000238418579
			}
		}
	],
	"meshes":[
		{
			"name":"Object_1",
			"primitives":[
				{
					"attributes":{
						"POSITION":0,
						"NORMAL":1,
						"TEXCOORD_0":2
					},
					"indices":3,
					"material":0
				}
			]
		},
		{
			"name":"Object_2",
			"primitives":[
				{
					"attributes":{
						"POSITION":4,
						"NORMAL":5,
						"TEXCOORD_0":6
					},
					"indices":7,
					"material":1
				}
			]
		},
		{
			"name":"Object_3",
			"primitives":[
				{
					"attributes":{
						"POSITION":8,
						"NORMAL":9,
						"TEXCOORD_0":10
					},
					"indices":11,
					"material":2
				}
			]
		},
		{
			"name":"Object_0.002",
			"primitives":[
				{
					"attributes":{
						"POSITION":12,
						"NORMAL":13,
						"TEXCOORD_0":14
					},
					"indices":15,
					"material":3
				}
			]
		},
		{
			"name":"Object_1.001",
			"primitives":[
				{
					"attributes":{
						"POSITION":16,
						"NORMAL":17,
						"TEXCOORD_0":18
					},
					"indices":3,
					"material":4
				}
			]
		},
		{
			"name":"Object_2.001",
			"primitives":[
				{
					"attributes":{
						"POSITION":19,
						"NORMAL":20,
						"TEXCOORD_0":21
					},
					"indices":7,
					"material":5
				}
			]
		},
		{
			"name":"Object_3.001",
			"primitives":[
				{
					"attributes":{
						"POSITION":22,
						"NORMAL":23,
						"TEXCOORD_0":24
					},
					"indices":11,
					"material":6
				}
			]
		}
	],
	"textures":[
		{
			"sampler":0,
			"source":0
		},
		{
			"sampler":0,
			"source":1
		},
		{
			"sampler":0,
			"source":1
		},
		{
			"sampler":0,
			"source":0
		},
		{
			"sampler":0,
			"source":1
		}
	],
	"images":[
		{
			"mimeType":"image/png",
			"name":"Image_1",
			"uri":"Image_1.png"
		},
		{
			"mimeType":"image/png",
			"name":"Image_0",
			"uri":"Image_0.png"
		}
	],
	"accessors":[
		{
			"bufferView":0,
			"componentType":5126,
			"count":270,
			"max":[
				1.6476199626922607,
				1.183135986328125,
				14.826299667358398
			],
			"min":[
				-1.6478099822998047,
				-3.1171939373016357,
				10.14050006866455
			],
			"type":"VEC3"
		},
		{
			"bufferView":1,
			"componentType":5126,
			"count":270,
			"type":"VEC3"
		},
		{
			"bufferView":2,
			"componentType":5126,
			"count":270,
			"type":"VEC2"
		},
		{
			"bufferView":3,
			"componentType":5123,
			"count":1311,
			"type":"SCALAR"
		},
		{
			"bufferView":4,
			"componentType":5126,
			"count":43,
			"max":[
				1.9999999949504854e-06,
				-0.9964759945869446,
				14.309196472167969
			],
			"min":[
				-1.2612090110778809,
				-1.4465759992599487,
				12.747777938842773
			],
			"type":"VEC3"
		},
		{
			"bufferView":5,
			"componentType":5126,
			"count":43,
			"type":"VEC3"
		},
		{
			"bufferView":6,
			"componentType":5126,
			"count":43,
			"type":"VEC2"
		},
		{
			"bufferView":7,
			"componentType":5123,
			"count":141,
			"type":"SCALAR"
		},
		{
			"bufferView":8,
			"componentType":5126,
			"count":43,
			"max":[
				1.2609210014343262,
				-0.9966149926185608,
				14.309196472167969
			],
			"min":[
				1.9999999949504854e-06,
				-1.4465759992599487,
				12.747787475585938
			],
			"type":"VEC3"
		},
		{
			"bufferView":9,
			"componentType":5126,
			"count":43,
			"type":"VEC3"
		},
		{
			"bufferView":10,
			"componentType":5126,
			"count":43,
			"type":"VEC2"
		},
		{
			"bufferView":11,
			"componentType":5123,
			"count":141,
			"type":"SCALAR"
		},
		{
			"bufferView":12,
			"componentType":5126,
			"count":2431,
			"max":[
				8.228799819946289,
				3.184494972229004,
				17.105701446533203
			],
			"min":[
				-8.228800773620605,
				-3.116964101791382,
				-0.03418000042438507
			],
			"type":"VEC3"
		},
		{
			"bufferView":13,
			"componentType":5126,
			"count":2431,
			"type":"VEC3"
		},
		{
			"bufferView":14,
			"componentType":5126,
			"count":2431,
			"type":"VEC2"
		},
		{
			"bufferView":15,
			"componentType":5123,
			"count":8064,
			"type":"SCALAR"
		},
		{
			"bufferView":16,
			"componentType":5126,
			"count":270,
			"max":[
				1.6476199626922607,
				1.183135986328125,
				14.826299667358398
			],
			"min":[
				-1.6478099822998047,
				-3.1171939373016357,
				10.14050006866455
			],
			"type":"VEC3"
		},
		{
			"bufferView":17,
			"componentType":5126,
			"count":270,
			"type":"VEC3"
		},
		{
			"bufferView":18,
			"componentType":5126,
			"count":270,
			"type":"VEC2"
		},
		{
			"bufferView":19,
			"componentType":5126,
			"count":43,
			"max":[
				1.9999999949504854e-06,
				-0.9964759945869446,
				14.309196472167969
			],
			"min":[
				-1.2612090110778809,
				-1.4465759992599487,
				12.747777938842773
			],
			"type":"VEC3"
		},
		{
			"bufferView":20,
			"componentType":5126,
			"count":43,
			"type":"VEC3"
		},
		{
			"bufferView":21,
			"componentType":5126,
			"count":43,
			"type":"VEC2"
		},
		{
			"bufferView":22,
			"componentType":5126,
			"count":43,
			"max":[
				1.2609210014343262,
				-0.9966149926185608,
				14.309196472167969
			],
			"min":[
				1.9999999949504854e-06,
				-1.4465759992599487,
				12.747787475585938
			],
			"type":"VEC3"
		},
		{
			"bufferView":23,
			"componentType":5126,
			"count":43,
			"type":"VEC3"
		},
		{
			"bufferView":24,
			"componentType":5126,
			"count":43,
			"type":"VEC2"
		}
	],
	"bufferViews":[
		{
			"buffer":0,
			"byteLength":3240,
			"byteOffset":0,
			"target":34962
		},
		{
			"buffer":0,
			"byteLength":3240,
			"byteOffset":3240,
			"target":34962
		},
		{
			"buffer":0,
			"byteLength":2160,
			"byteOffset":6480,
			"target":34962
		},
		{
			"buffer":0,
			"byteLength":2622,
			"byteOffset":8640,
			"target":34963
		},
		{
			"buffer":0,
			"byteLength":516,
			"byteOffset":11264,
			"target":34962
		},
		{
			"buffer":0,
			"byteLength":516,
			"byteOffset":11780,
			"target":34962
		},
		{
			"buffer":0,
			"byteLength":344,
			"byteOffset":12296,
			"target":34962
		},
		{
			"buffer":0,
			"byteLength":282,
			"byteOffset":12640,
			"target":34963
		},
		{
			"buffer":0,
			"byteLength":516,
			"byteOffset":12924,
			"target":34962
		},
		{
			"buffer":0,
			"byteLength":516,
			"byteOffset":13440,
			"target":34962
		},
		{
			"buffer":0,
			"byteLength":344,
			"byteOffset":13956,
			"target":34962
		},
		{
			"buffer":0,
			"byteLength":282,
			"byteOffset":14300,
			"target":34963
		},
		{
			"buffer":0,
			"byteLength":29172,
			"byteOffset":14584,
			"target":34962
		},
		{
			"buffer":0,
			"byteLength":29172,
			"byteOffset":43756,
			"target":34962
		},
		{
			"buffer":0,
			"byteLength":19448,
			"byteOffset":72928,
			"target":34962
		},
		{
			"buffer":0,
			"byteLength":16128,
			"byteOffset":92376,
			"target":34963
		},
		{
			"buffer":0,
			"byteLength":3240,
			"byteOffset":108504,
			"target":34962
		},
		{
			"buffer":0,
			"byteLength":3240,
			"byteOffset":111744,
			"target":34962
		},
		{
			"buffer":0,
			"byteLength":2160,
			"byteOffset":114984,
			"target":34962
		},
		{
			"buffer":0,
			"byteLength":516,
			"byteOffset":117144,
			"target":34962
		},
		{
			"buffer":0,
			"byteLength":516,
			"byteOffset":117660,
			"target":34962
		},
		{
			"buffer":0,
			"byteLength":344,
			"byteOffset":118176,
			"target":34962
		},
		{
			"buffer":0,
			"byteLength":516,
			"byteOffset":118520,
			"target":34962
		},
		{
			"buffer":0,
			"byteLength":516,
			"byteOffset":119036,
			"target":34962
		},
		{
			"buffer":0,
			"byteLength":344,
			"byteOffset":119552,
			"target":34962
		}
	],
	"samplers":[
		{
			"magFilter":9729,
			"minFilter":9987
		}
	],
	"buffers":[
		{
			"byteLength":119896,
			"uri":"Luigi.bin"
		}
	]
}
